HIERARCHY
ROOT SpineBase
{
  OFFSET 0.000000 0.000000 0.000000
  CHANNELS 6 Xposition Yposition Zposition Zrotation Xrotation Yrotation
  JOINT SpineMid
  {
    OFFSET 0.000000 29.411276 0.000000
    CHANNELS 3 Zrotation Xrotation Yrotation
    JOINT SpineShoulder
    {
      OFFSET 0.042398 21.890765 -0.706735
      CHANNELS 3 Zrotation Xrotation Yrotation
      JOINT Neck
      {
        OFFSET 0.031461 7.268124 -0.559933
        CHANNELS 3 Zrotation Xrotation Yrotation
        JOINT Head
        {
          OFFSET -4.206139 13.502315 -0.384504
          CHANNELS 3 Zrotation Xrotation Yrotation
          End Site
          {
            OFFSET 0 0 0
          }
        }
      }
      JOINT ShoulderLeft
      {
        OFFSET -16.460688 -4.498886 4.783057
        CHANNELS 3 Zrotation Xrotation Yrotation
        JOINT ElbowLeft
        {
          OFFSET -1.476777 -26.869822 2.468280
          CHANNELS 3 Zrotation Xrotation Yrotation
          JOINT WristLeft
          {
            OFFSET 0.744813 -21.798771 -6.707120
            CHANNELS 3 Zrotation Xrotation Yrotation
            JOINT HandLeft
            {
              OFFSET 0.880791 -1.671392 -0.401845
              CHANNELS 3 Zrotation Xrotation Yrotation
              JOINT HandTipLeft
              {
                OFFSET 1.236916 -7.691457 -1.118354
                CHANNELS 3 Zrotation Xrotation Yrotation
                End Site
                {
                  OFFSET 0 0 0
                }
              }
              JOINT ThumbLeft
              {
                OFFSET 3.275189 2.928574 -3.165107
                CHANNELS 3 Zrotation Xrotation Yrotation
                End Site
                {
                  OFFSET 0 0 0
                }
              }
            }
          }
        }
      }
      JOINT ShoulderRight
      {
        OFFSET 14.625599 -2.816258 -6.927215
        CHANNELS 3 Zrotation Xrotation Yrotation
        JOINT ElbowRight
        {
          OFFSET 6.750135 -23.920037 -0.014061
          CHANNELS 3 Zrotation Xrotation Yrotation
          JOINT WristRight
          {
            OFFSET -0.232914 -22.248397 -4.569223
            CHANNELS 3 Zrotation Xrotation Yrotation
            JOINT HandRight
            {
              OFFSET -2.343764 -5.368904 0.258717
              CHANNELS 3 Zrotation Xrotation Yrotation
              JOINT HandTipRight
              {
                OFFSET -0.221955 -5.571311 0.662161
                CHANNELS 3 Zrotation Xrotation Yrotation
                End Site
                {
                  OFFSET 0 0 0
                }
              }
              JOINT ThumbRight
              {
                OFFSET -2.874269 1.610613 -2.400333
                CHANNELS 3 Zrotation Xrotation Yrotation
                End Site
                {
                  OFFSET 0 0 0
                }
              }
            }
          }
        }
      }
    }
  }
  JOINT HipLeft
  {
    OFFSET -6.485759 0.366418 -1.256166
    CHANNELS 3 Zrotation Xrotation Yrotation
    JOINT KneeLeft
    {
      OFFSET 3.704655 -28.340277 4.534419
      CHANNELS 3 Zrotation Xrotation Yrotation
      JOINT AnkleLeft
      {
        OFFSET 4.308349 -32.746354 4.824038
        CHANNELS 3 Zrotation Xrotation Yrotation
        JOINT FootLeft
        {
          OFFSET 3.679973 -6.887178 -6.561874
          CHANNELS 3 Zrotation Xrotation Yrotation
          End Site
          {
            OFFSET 0 0 0
          }
        }
      }
    }
  }
  JOINT HipRight
  {
    OFFSET 7.132912 1.517389 -5.416943
    CHANNELS 3 Zrotation Xrotation Yrotation
    JOINT KneeRight
    {
      OFFSET 6.576850 -28.176671 2.464175
      CHANNELS 3 Zrotation Xrotation Yrotation
      JOINT AnkleRight
      {
        OFFSET 1.639640 -33.544871 5.779053
        CHANNELS 3 Zrotation Xrotation Yrotation
        JOINT FootRight
        {
          OFFSET -0.959293 -7.933903 -5.286822
          CHANNELS 3 Zrotation Xrotation Yrotation
          End Site
          {
            OFFSET 0 0 0
          }
        }
      }
    }
  }
}
MOTION
Frames: 6
Frame Time: 0.033333
-32.161527 68.692255 345.737348 -0.000000 0.000000 16.988963 -0.000000 0.000000 -16.988963 -0.000000 0.000000 0.000000 -0.000000 0.000000 0.000000 0.000000 0.000000 0.000000 -0.000000 0.000000 0.000000 -0.000000 0.000000 0.000000 -0.000000 0.000000 0.000000 -0.000000 0.000000 0.000000 0.000000 0.000000 0.000000 0.000000 0.000000 0.000000 -0.000000 0.000000 0.000000 -0.000000 0.000000 0.000000 -0.000000 0.000000 0.000000 -0.000000 0.000000 0.000000 0.000000 0.000000 0.000000 0.000000 0.000000 0.000000 -0.000000 0.000000 -16.988963 -0.000000 0.000000 0.000000 -0.000000 0.000000 0.000000 0.000000 0.000000 0.000000 -0.000000 0.000000 -16.988963 -0.000000 0.000000 0.000000 -0.000000 0.000000 0.000000 0.000000 0.000000 0.000000
-32.158959 68.689516 345.724569 0.016426 -0.016939 17.050379 -0.010737 0.021010 -17.050375 -0.000000 0.000000 0.000000 -0.000000 0.000000 0.000000 0.000000 0.000000 0.000000 -0.000000 0.000000 0.000000 -0.000000 0.000000 0.000000 6.193864 1.281939 -0.857613 -6.175746 -1.366863 0.714512 0.000000 0.000000 0.000000 0.000000 0.000000 0.000000 -0.000000 0.000000 0.000000 -0.000000 0.000000 0.000000 -2.809514 -1.734075 0.572567 5.669146 7.326296 -0.777996 0.000000 0.000000 0.000000 0.000000 0.000000 0.000000 -0.010737 0.021010 -17.050375 -0.000000 0.000000 0.000000 -0.000000 0.000000 0.000000 0.000000 0.000000 0.000000 -0.010737 0.021010 -17.050375 -0.000000 0.000000 0.000000 0.859383 -0.890217 -0.461155 0.000000 0.000000 0.000000
-32.152395 68.684629 345.713147 0.036592 -0.042501 17.107749 -0.022470 0.051385 -17.107726 -0.000000 0.000000 0.000000 -0.000000 0.000000 0.000000 0.000000 0.000000 0.000000 -0.000000 0.000000 0.000000 -0.000000 0.000000 0.000000 13.336633 1.821047 -2.321935 -12.669804 -3.420388 1.607326 0.000000 0.000000 0.000000 0.000000 0.000000 0.000000 0.851900 -1.032510 -0.283608 -1.675667 1.602604 0.478954 -5.131230 -4.390816 0.942753 10.830441 13.046276 -2.102254 0.000000 0.000000 0.000000 0.000000 0.000000 0.000000 -0.022470 0.051385 -17.107726 -0.000000 0.000000 0.000000 0.649725 0.600807 -0.299021 0.000000 0.000000 0.000000 -0.022470 0.051385 -17.107726 -0.000000 0.000000 0.000000 1.131349 -0.184745 -0.731396 0.000000 0.000000 0.000000
-32.141836 68.677594 345.703084 0.060500 -0.076687 17.161112 -0.035180 0.091124 -17.161044 -0.000000 0.000000 0.000000 -0.000000 0.000000 0.000000 0.000000 0.000000 0.000000 -0.000000 0.000000 0.000000 -0.113950 0.837070 0.064352 21.152329 0.307727 -4.061705 -20.184026 -4.061636 3.325178 0.000000 0.000000 0.000000 0.000000 0.000000 0.000000 1.052433 -1.274756 -0.347756 -2.162282 1.925782 0.619966 -8.109740 -6.851379 1.395120 15.562469 17.582821 -3.795423 0.000000 0.000000 0.000000 0.000000 0.000000 0.000000 -0.035180 0.091124 -17.161044 -0.000000 0.000000 0.000000 0.919174 0.824146 -0.437150 0.000000 0.000000 0.000000 -0.035180 0.091124 -17.161044 -0.000000 0.000000 0.000000 0.823329 2.111933 -0.809944 0.000000 0.000000 0.000000
-32.127280 68.668412 345.694379 0.088153 -0.119501 17.210513 -0.048848 0.140233 -17.210361 -0.000000 0.000000 0.000000 -0.000000 0.000000 0.000000 0.000000 0.000000 0.000000 -0.000000 0.000000 0.000000 -0.135098 1.029961 0.077762 28.705453 -2.230663 -6.074475 -27.731818 -3.708596 5.988521 0.000000 0.000000 0.000000 0.000000 0.000000 0.000000 1.111324 -1.342938 -0.365618 -2.419793 1.942571 0.688019 -10.945446 -9.295746 1.806849 19.595936 21.105822 -5.655538 0.000000 0.000000 0.000000 0.000000 0.000000 0.000000 -0.048848 0.140233 -17.210361 -0.000000 0.000000 0.000000 1.151919 0.996945 -0.567114 0.000000 0.000000 0.000000 -0.048848 0.140233 -17.210361 -0.000000 0.000000 0.000000 -0.067086 5.951404 -0.649494 0.000000 0.000000 0.000000
-32.108729 68.657082 345.687032 0.119555 -0.170948 17.256000 -0.063464 0.198718 -17.255712 -0.000000 0.000000 0.000000 -0.000000 0.000000 0.000000 0.000000 0.000000 0.000000 -0.000000 0.000000 0.000000 -0.147769 1.179840 0.087029 35.136329 -6.560028 -7.904251 -34.540273 -2.247086 9.779551 0.000000 0.000000 0.000000 0.000000 0.000000 0.000000 1.032682 -1.241771 -0.338991 -2.451859 1.658719 0.681510 -13.154422 -11.431767 2.192961 22.355478 23.607991 -7.358695 0.000000 0.000000 0.000000 0.000000 0.000000 0.000000 -0.063464 0.198718 -17.255712 -0.000000 0.000000 0.000000 1.348090 1.119707 -0.688597 0.000000 0.000000 0.000000 -0.063464 0.198718 -17.255712 -0.686873 -0.555380 -0.148730 -0.896186 11.742888 -0.000942 0.000000 0.000000 0.000000
